<mxfile host="app.diagrams.net" modified="2023-09-24T02:12:04.102Z" agent="Mozilla/5.0 (Windows NT 10.0; Win64; x64) AppleWebKit/537.36 (KHTML, like Gecko) Chrome/116.0.0.0 Safari/537.36" etag="5cElZ3BguvgVU-_gOqZl" version="21.8.1" type="github">
  <diagram name="第 1 页" id="TVmT3UzBPyA7dH30gvk1">
    <mxGraphModel dx="875" dy="552" grid="1" gridSize="10" guides="1" tooltips="1" connect="1" arrows="1" fold="1" page="1" pageScale="1" pageWidth="827" pageHeight="1169" math="0" shadow="0">
      <root>
        <mxCell id="0" />
        <mxCell id="1" parent="0" />
        <mxCell id="v_qZ0RTvMOnoxzIiRFkD-2" value="" style="shape=cube;whiteSpace=wrap;html=1;boundedLbl=1;backgroundOutline=1;darkOpacity=0.05;darkOpacity2=0.1;size=10;" parent="1" vertex="1">
          <mxGeometry x="640" y="350" width="80" height="80.75" as="geometry" />
        </mxCell>
        <mxCell id="v_qZ0RTvMOnoxzIiRFkD-4" value="" style="shape=cube;whiteSpace=wrap;html=1;boundedLbl=1;backgroundOutline=1;darkOpacity=0.05;darkOpacity2=0.1;size=10;" parent="1" vertex="1">
          <mxGeometry x="590" y="310" width="20" height="137.5" as="geometry" />
        </mxCell>
        <mxCell id="v_qZ0RTvMOnoxzIiRFkD-6" value="" style="shape=cube;whiteSpace=wrap;html=1;boundedLbl=1;backgroundOutline=1;darkOpacity=0.05;darkOpacity2=0.1;size=10;" parent="1" vertex="1">
          <mxGeometry x="730" y="310" width="20" height="255" as="geometry" />
        </mxCell>
        <mxCell id="v_qZ0RTvMOnoxzIiRFkD-7" value="" style="shape=cube;whiteSpace=wrap;html=1;boundedLbl=1;backgroundOutline=1;darkOpacity=0.05;darkOpacity2=0.1;size=10;" parent="1" vertex="1">
          <mxGeometry x="630" y="460" width="80" height="40.75" as="geometry" />
        </mxCell>
        <mxCell id="v_qZ0RTvMOnoxzIiRFkD-10" value="" style="shape=cube;whiteSpace=wrap;html=1;boundedLbl=1;backgroundOutline=1;darkOpacity=0.05;darkOpacity2=0.1;size=10;" parent="1" vertex="1">
          <mxGeometry x="510" y="120" width="80" height="197" as="geometry" />
        </mxCell>
        <mxCell id="v_qZ0RTvMOnoxzIiRFkD-103" value="" style="rounded=0;whiteSpace=wrap;html=1;rotation=90;" parent="1" vertex="1">
          <mxGeometry x="560" y="650" width="120" height="30" as="geometry" />
        </mxCell>
        <mxCell id="v_qZ0RTvMOnoxzIiRFkD-104" value="" style="rounded=0;whiteSpace=wrap;html=1;rotation=90;" parent="1" vertex="1">
          <mxGeometry x="540" y="670" width="160" height="30" as="geometry" />
        </mxCell>
        <mxCell id="8aKIkqGvbFKeEApUEz_4-7" value="" style="group" vertex="1" connectable="0" parent="1">
          <mxGeometry x="73" y="405.25" width="399" height="370.5" as="geometry" />
        </mxCell>
        <mxCell id="v_qZ0RTvMOnoxzIiRFkD-47" value="" style="group;fillColor=#dae8fc;strokeColor=#6c8ebf;" parent="8aKIkqGvbFKeEApUEz_4-7" vertex="1" connectable="0">
          <mxGeometry x="236" y="31.75" width="20" height="320" as="geometry" />
        </mxCell>
        <mxCell id="v_qZ0RTvMOnoxzIiRFkD-13" value="" style="ellipse;whiteSpace=wrap;html=1;aspect=fixed;" parent="v_qZ0RTvMOnoxzIiRFkD-47" vertex="1">
          <mxGeometry y="28.379999999999995" width="20" height="20" as="geometry" />
        </mxCell>
        <mxCell id="v_qZ0RTvMOnoxzIiRFkD-22" value="" style="ellipse;whiteSpace=wrap;html=1;aspect=fixed;" parent="v_qZ0RTvMOnoxzIiRFkD-47" vertex="1">
          <mxGeometry y="272" width="20" height="20" as="geometry" />
        </mxCell>
        <mxCell id="v_qZ0RTvMOnoxzIiRFkD-111" style="rounded=0;orthogonalLoop=1;jettySize=auto;html=1;exitX=1;exitY=0.5;exitDx=0;exitDy=0;endArrow=none;endFill=0;" parent="v_qZ0RTvMOnoxzIiRFkD-47" source="v_qZ0RTvMOnoxzIiRFkD-23" edge="1">
          <mxGeometry relative="1" as="geometry">
            <mxPoint x="50" y="60" as="targetPoint" />
          </mxGeometry>
        </mxCell>
        <mxCell id="v_qZ0RTvMOnoxzIiRFkD-23" value="" style="ellipse;whiteSpace=wrap;html=1;aspect=fixed;" parent="v_qZ0RTvMOnoxzIiRFkD-47" vertex="1">
          <mxGeometry y="300" width="20" height="20" as="geometry" />
        </mxCell>
        <mxCell id="v_qZ0RTvMOnoxzIiRFkD-24" value="" style="ellipse;whiteSpace=wrap;html=1;aspect=fixed;" parent="v_qZ0RTvMOnoxzIiRFkD-47" vertex="1">
          <mxGeometry y="1" width="20" height="20" as="geometry" />
        </mxCell>
        <mxCell id="v_qZ0RTvMOnoxzIiRFkD-101" value="" style="endArrow=none;dashed=1;html=1;dashPattern=1 3;strokeWidth=2;rounded=0;" parent="v_qZ0RTvMOnoxzIiRFkD-47" edge="1">
          <mxGeometry width="50" height="50" relative="1" as="geometry">
            <mxPoint x="9.769999999999982" y="222" as="sourcePoint" />
            <mxPoint x="9.769999999999982" y="100" as="targetPoint" />
          </mxGeometry>
        </mxCell>
        <mxCell id="v_qZ0RTvMOnoxzIiRFkD-48" value="" style="group;fillColor=#dae8fc;strokeColor=#6c8ebf;" parent="8aKIkqGvbFKeEApUEz_4-7" vertex="1" connectable="0">
          <mxGeometry x="284" y="80.13" width="20" height="229.62" as="geometry" />
        </mxCell>
        <mxCell id="v_qZ0RTvMOnoxzIiRFkD-31" value="" style="ellipse;whiteSpace=wrap;html=1;aspect=fixed;" parent="v_qZ0RTvMOnoxzIiRFkD-48" vertex="1">
          <mxGeometry width="20" height="20" as="geometry" />
        </mxCell>
        <mxCell id="v_qZ0RTvMOnoxzIiRFkD-38" value="" style="ellipse;whiteSpace=wrap;html=1;aspect=fixed;" parent="v_qZ0RTvMOnoxzIiRFkD-48" vertex="1">
          <mxGeometry y="209.62" width="20" height="20" as="geometry" />
        </mxCell>
        <mxCell id="v_qZ0RTvMOnoxzIiRFkD-49" value="" style="group;fillColor=#dae8fc;strokeColor=#6c8ebf;" parent="8aKIkqGvbFKeEApUEz_4-7" vertex="1" connectable="0">
          <mxGeometry x="330" y="80.13" width="20" height="229.62" as="geometry" />
        </mxCell>
        <mxCell id="v_qZ0RTvMOnoxzIiRFkD-39" value="" style="ellipse;whiteSpace=wrap;html=1;aspect=fixed;" parent="v_qZ0RTvMOnoxzIiRFkD-49" vertex="1">
          <mxGeometry width="20" height="20" as="geometry" />
        </mxCell>
        <mxCell id="v_qZ0RTvMOnoxzIiRFkD-46" value="" style="ellipse;whiteSpace=wrap;html=1;aspect=fixed;" parent="v_qZ0RTvMOnoxzIiRFkD-49" vertex="1">
          <mxGeometry y="209.62" width="20" height="20" as="geometry" />
        </mxCell>
        <mxCell id="v_qZ0RTvMOnoxzIiRFkD-90" value="" style="endArrow=none;dashed=1;html=1;dashPattern=1 3;strokeWidth=2;rounded=0;" parent="v_qZ0RTvMOnoxzIiRFkD-49" edge="1">
          <mxGeometry width="50" height="50" relative="1" as="geometry">
            <mxPoint x="10" y="173.62" as="sourcePoint" />
            <mxPoint x="10" y="51.620000000000005" as="targetPoint" />
          </mxGeometry>
        </mxCell>
        <mxCell id="v_qZ0RTvMOnoxzIiRFkD-50" value="" style="group;fillColor=#dae8fc;strokeColor=#6c8ebf;" parent="8aKIkqGvbFKeEApUEz_4-7" vertex="1" connectable="0">
          <mxGeometry x="379" y="123.63" width="20" height="139.25" as="geometry" />
        </mxCell>
        <mxCell id="v_qZ0RTvMOnoxzIiRFkD-26" value="" style="ellipse;whiteSpace=wrap;html=1;aspect=fixed;" parent="v_qZ0RTvMOnoxzIiRFkD-50" vertex="1">
          <mxGeometry width="20" height="20" as="geometry" />
        </mxCell>
        <mxCell id="v_qZ0RTvMOnoxzIiRFkD-27" value="" style="ellipse;whiteSpace=wrap;html=1;aspect=fixed;" parent="v_qZ0RTvMOnoxzIiRFkD-50" vertex="1">
          <mxGeometry y="29.25" width="20" height="20" as="geometry" />
        </mxCell>
        <mxCell id="v_qZ0RTvMOnoxzIiRFkD-28" value="" style="ellipse;whiteSpace=wrap;html=1;aspect=fixed;" parent="v_qZ0RTvMOnoxzIiRFkD-50" vertex="1">
          <mxGeometry y="59.309999999999945" width="20" height="20" as="geometry" />
        </mxCell>
        <mxCell id="v_qZ0RTvMOnoxzIiRFkD-29" value="" style="ellipse;whiteSpace=wrap;html=1;aspect=fixed;" parent="v_qZ0RTvMOnoxzIiRFkD-50" vertex="1">
          <mxGeometry y="89.25" width="20" height="20" as="geometry" />
        </mxCell>
        <mxCell id="v_qZ0RTvMOnoxzIiRFkD-30" value="" style="ellipse;whiteSpace=wrap;html=1;aspect=fixed;" parent="v_qZ0RTvMOnoxzIiRFkD-50" vertex="1">
          <mxGeometry y="119.25" width="20" height="20" as="geometry" />
        </mxCell>
        <mxCell id="v_qZ0RTvMOnoxzIiRFkD-51" style="rounded=0;orthogonalLoop=1;jettySize=auto;html=1;exitX=1;exitY=0.5;exitDx=0;exitDy=0;entryX=0;entryY=0;entryDx=0;entryDy=0;endArrow=none;endFill=0;" parent="8aKIkqGvbFKeEApUEz_4-7" source="v_qZ0RTvMOnoxzIiRFkD-24" target="v_qZ0RTvMOnoxzIiRFkD-31" edge="1">
          <mxGeometry relative="1" as="geometry" />
        </mxCell>
        <mxCell id="v_qZ0RTvMOnoxzIiRFkD-61" style="rounded=0;orthogonalLoop=1;jettySize=auto;html=1;exitX=1;exitY=0.5;exitDx=0;exitDy=0;entryX=0;entryY=0.5;entryDx=0;entryDy=0;endArrow=none;endFill=0;" parent="8aKIkqGvbFKeEApUEz_4-7" source="v_qZ0RTvMOnoxzIiRFkD-24" target="v_qZ0RTvMOnoxzIiRFkD-38" edge="1">
          <mxGeometry relative="1" as="geometry" />
        </mxCell>
        <mxCell id="v_qZ0RTvMOnoxzIiRFkD-62" style="rounded=0;orthogonalLoop=1;jettySize=auto;html=1;exitX=1;exitY=0.5;exitDx=0;exitDy=0;entryX=0;entryY=0;entryDx=0;entryDy=0;endArrow=none;endFill=0;" parent="8aKIkqGvbFKeEApUEz_4-7" source="v_qZ0RTvMOnoxzIiRFkD-13" target="v_qZ0RTvMOnoxzIiRFkD-31" edge="1">
          <mxGeometry relative="1" as="geometry" />
        </mxCell>
        <mxCell id="v_qZ0RTvMOnoxzIiRFkD-70" style="rounded=0;orthogonalLoop=1;jettySize=auto;html=1;exitX=1;exitY=0.5;exitDx=0;exitDy=0;entryX=0;entryY=0.5;entryDx=0;entryDy=0;endArrow=none;endFill=0;" parent="8aKIkqGvbFKeEApUEz_4-7" source="v_qZ0RTvMOnoxzIiRFkD-13" target="v_qZ0RTvMOnoxzIiRFkD-38" edge="1">
          <mxGeometry relative="1" as="geometry" />
        </mxCell>
        <mxCell id="v_qZ0RTvMOnoxzIiRFkD-80" style="rounded=0;orthogonalLoop=1;jettySize=auto;html=1;exitX=0;exitY=0;exitDx=0;exitDy=0;entryX=1;entryY=0.5;entryDx=0;entryDy=0;endArrow=none;endFill=0;" parent="8aKIkqGvbFKeEApUEz_4-7" source="v_qZ0RTvMOnoxzIiRFkD-26" target="v_qZ0RTvMOnoxzIiRFkD-39" edge="1">
          <mxGeometry relative="1" as="geometry" />
        </mxCell>
        <mxCell id="v_qZ0RTvMOnoxzIiRFkD-81" style="rounded=0;orthogonalLoop=1;jettySize=auto;html=1;exitX=0;exitY=0.5;exitDx=0;exitDy=0;entryX=1;entryY=0;entryDx=0;entryDy=0;endArrow=none;endFill=0;" parent="8aKIkqGvbFKeEApUEz_4-7" source="v_qZ0RTvMOnoxzIiRFkD-26" target="v_qZ0RTvMOnoxzIiRFkD-46" edge="1">
          <mxGeometry relative="1" as="geometry" />
        </mxCell>
        <mxCell id="v_qZ0RTvMOnoxzIiRFkD-82" style="rounded=0;orthogonalLoop=1;jettySize=auto;html=1;exitX=0;exitY=0;exitDx=0;exitDy=0;entryX=1;entryY=0.5;entryDx=0;entryDy=0;endArrow=none;endFill=0;" parent="8aKIkqGvbFKeEApUEz_4-7" source="v_qZ0RTvMOnoxzIiRFkD-30" target="v_qZ0RTvMOnoxzIiRFkD-39" edge="1">
          <mxGeometry relative="1" as="geometry" />
        </mxCell>
        <mxCell id="v_qZ0RTvMOnoxzIiRFkD-83" style="rounded=0;orthogonalLoop=1;jettySize=auto;html=1;exitX=0;exitY=1;exitDx=0;exitDy=0;entryX=1;entryY=0;entryDx=0;entryDy=0;endArrow=none;endFill=0;" parent="8aKIkqGvbFKeEApUEz_4-7" source="v_qZ0RTvMOnoxzIiRFkD-30" target="v_qZ0RTvMOnoxzIiRFkD-46" edge="1">
          <mxGeometry relative="1" as="geometry" />
        </mxCell>
        <mxCell id="v_qZ0RTvMOnoxzIiRFkD-93" style="rounded=0;orthogonalLoop=1;jettySize=auto;html=1;exitX=1;exitY=0.5;exitDx=0;exitDy=0;entryX=0;entryY=0.5;entryDx=0;entryDy=0;endArrow=none;endFill=0;" parent="8aKIkqGvbFKeEApUEz_4-7" source="v_qZ0RTvMOnoxzIiRFkD-39" target="v_qZ0RTvMOnoxzIiRFkD-27" edge="1">
          <mxGeometry relative="1" as="geometry" />
        </mxCell>
        <mxCell id="v_qZ0RTvMOnoxzIiRFkD-95" style="rounded=0;orthogonalLoop=1;jettySize=auto;html=1;exitX=1;exitY=0.5;exitDx=0;exitDy=0;entryX=-0.003;entryY=0.377;entryDx=0;entryDy=0;entryPerimeter=0;endArrow=none;endFill=0;" parent="8aKIkqGvbFKeEApUEz_4-7" source="v_qZ0RTvMOnoxzIiRFkD-39" target="v_qZ0RTvMOnoxzIiRFkD-28" edge="1">
          <mxGeometry relative="1" as="geometry" />
        </mxCell>
        <mxCell id="v_qZ0RTvMOnoxzIiRFkD-96" style="rounded=0;orthogonalLoop=1;jettySize=auto;html=1;exitX=1;exitY=0.5;exitDx=0;exitDy=0;entryX=0.024;entryY=0.312;entryDx=0;entryDy=0;entryPerimeter=0;endArrow=none;endFill=0;" parent="8aKIkqGvbFKeEApUEz_4-7" source="v_qZ0RTvMOnoxzIiRFkD-39" target="v_qZ0RTvMOnoxzIiRFkD-29" edge="1">
          <mxGeometry relative="1" as="geometry" />
        </mxCell>
        <mxCell id="v_qZ0RTvMOnoxzIiRFkD-97" style="rounded=0;orthogonalLoop=1;jettySize=auto;html=1;exitX=0;exitY=0.5;exitDx=0;exitDy=0;entryX=1;entryY=0;entryDx=0;entryDy=0;endArrow=none;endFill=0;" parent="8aKIkqGvbFKeEApUEz_4-7" source="v_qZ0RTvMOnoxzIiRFkD-27" target="v_qZ0RTvMOnoxzIiRFkD-46" edge="1">
          <mxGeometry relative="1" as="geometry" />
        </mxCell>
        <mxCell id="v_qZ0RTvMOnoxzIiRFkD-98" style="rounded=0;orthogonalLoop=1;jettySize=auto;html=1;exitX=0;exitY=0.5;exitDx=0;exitDy=0;entryX=1;entryY=0;entryDx=0;entryDy=0;endArrow=none;endFill=0;" parent="8aKIkqGvbFKeEApUEz_4-7" source="v_qZ0RTvMOnoxzIiRFkD-28" target="v_qZ0RTvMOnoxzIiRFkD-46" edge="1">
          <mxGeometry relative="1" as="geometry" />
        </mxCell>
        <mxCell id="v_qZ0RTvMOnoxzIiRFkD-99" style="rounded=0;orthogonalLoop=1;jettySize=auto;html=1;exitX=0;exitY=0.5;exitDx=0;exitDy=0;entryX=0.866;entryY=0.122;entryDx=0;entryDy=0;entryPerimeter=0;endArrow=none;endFill=0;" parent="8aKIkqGvbFKeEApUEz_4-7" source="v_qZ0RTvMOnoxzIiRFkD-29" target="v_qZ0RTvMOnoxzIiRFkD-46" edge="1">
          <mxGeometry relative="1" as="geometry" />
        </mxCell>
        <mxCell id="v_qZ0RTvMOnoxzIiRFkD-100" value="" style="endArrow=none;dashed=1;html=1;dashPattern=1 3;strokeWidth=2;rounded=0;" parent="8aKIkqGvbFKeEApUEz_4-7" edge="1">
          <mxGeometry width="50" height="50" relative="1" as="geometry">
            <mxPoint x="318" y="253.75" as="sourcePoint" />
            <mxPoint x="318" y="131.75" as="targetPoint" />
          </mxGeometry>
        </mxCell>
        <mxCell id="v_qZ0RTvMOnoxzIiRFkD-3" value="" style="shape=cube;whiteSpace=wrap;html=1;boundedLbl=1;backgroundOutline=1;darkOpacity=0.05;darkOpacity2=0.1;size=10;" parent="8aKIkqGvbFKeEApUEz_4-7" vertex="1">
          <mxGeometry width="20" height="370.5" as="geometry" />
        </mxCell>
        <mxCell id="v_qZ0RTvMOnoxzIiRFkD-11" value="" style="shape=cube;whiteSpace=wrap;html=1;boundedLbl=1;backgroundOutline=1;darkOpacity=0.05;darkOpacity2=0.1;size=10;" parent="8aKIkqGvbFKeEApUEz_4-7" vertex="1">
          <mxGeometry x="44" y="88.25" width="40" height="194" as="geometry" />
        </mxCell>
        <mxCell id="v_qZ0RTvMOnoxzIiRFkD-12" value="" style="shape=cube;whiteSpace=wrap;html=1;boundedLbl=1;backgroundOutline=1;darkOpacity=0.05;darkOpacity2=0.1;size=10;" parent="8aKIkqGvbFKeEApUEz_4-7" vertex="1">
          <mxGeometry x="109" y="154.75" width="84" height="49" as="geometry" />
        </mxCell>
        <mxCell id="v_qZ0RTvMOnoxzIiRFkD-59" value="" style="shape=flexArrow;endArrow=classic;html=1;rounded=0;width=8;endSize=4.666666666666667;endWidth=14.444444444444445;fillColor=#e1d5e7;strokeColor=#9673a6;" parent="8aKIkqGvbFKeEApUEz_4-7" edge="1">
          <mxGeometry width="50" height="50" relative="1" as="geometry">
            <mxPoint x="199" y="186.61" as="sourcePoint" />
            <mxPoint x="229" y="186.61" as="targetPoint" />
          </mxGeometry>
        </mxCell>
        <mxCell id="v_qZ0RTvMOnoxzIiRFkD-108" style="rounded=0;orthogonalLoop=1;jettySize=auto;html=1;exitX=1;exitY=0.5;exitDx=0;exitDy=0;entryX=0;entryY=0.5;entryDx=0;entryDy=0;endArrow=none;endFill=0;" parent="8aKIkqGvbFKeEApUEz_4-7" source="v_qZ0RTvMOnoxzIiRFkD-22" target="v_qZ0RTvMOnoxzIiRFkD-31" edge="1">
          <mxGeometry relative="1" as="geometry" />
        </mxCell>
        <mxCell id="v_qZ0RTvMOnoxzIiRFkD-109" style="rounded=0;orthogonalLoop=1;jettySize=auto;html=1;exitX=0;exitY=0.5;exitDx=0;exitDy=0;entryX=1;entryY=0.5;entryDx=0;entryDy=0;endArrow=none;endFill=0;" parent="8aKIkqGvbFKeEApUEz_4-7" source="v_qZ0RTvMOnoxzIiRFkD-38" target="v_qZ0RTvMOnoxzIiRFkD-22" edge="1">
          <mxGeometry relative="1" as="geometry" />
        </mxCell>
        <mxCell id="v_qZ0RTvMOnoxzIiRFkD-110" style="rounded=0;orthogonalLoop=1;jettySize=auto;html=1;exitX=1;exitY=0.5;exitDx=0;exitDy=0;entryX=0;entryY=0.5;entryDx=0;entryDy=0;endArrow=none;endFill=0;" parent="8aKIkqGvbFKeEApUEz_4-7" source="v_qZ0RTvMOnoxzIiRFkD-23" target="v_qZ0RTvMOnoxzIiRFkD-38" edge="1">
          <mxGeometry relative="1" as="geometry" />
        </mxCell>
        <mxCell id="v_qZ0RTvMOnoxzIiRFkD-112" value="" style="endArrow=none;dashed=1;html=1;dashPattern=1 3;strokeWidth=2;rounded=0;" parent="8aKIkqGvbFKeEApUEz_4-7" edge="1">
          <mxGeometry width="50" height="50" relative="1" as="geometry">
            <mxPoint x="270.77" y="253.75" as="sourcePoint" />
            <mxPoint x="270.77" y="131.75" as="targetPoint" />
          </mxGeometry>
        </mxCell>
        <mxCell id="v_qZ0RTvMOnoxzIiRFkD-113" style="rounded=0;orthogonalLoop=1;jettySize=auto;html=1;exitX=1;exitY=0.5;exitDx=0;exitDy=0;entryX=0;entryY=0.5;entryDx=0;entryDy=0;endArrow=none;endFill=0;" parent="8aKIkqGvbFKeEApUEz_4-7" source="v_qZ0RTvMOnoxzIiRFkD-31" target="v_qZ0RTvMOnoxzIiRFkD-39" edge="1">
          <mxGeometry relative="1" as="geometry" />
        </mxCell>
        <mxCell id="v_qZ0RTvMOnoxzIiRFkD-114" style="rounded=0;orthogonalLoop=1;jettySize=auto;html=1;exitX=1;exitY=0.5;exitDx=0;exitDy=0;entryX=0;entryY=0.5;entryDx=0;entryDy=0;endArrow=none;endFill=0;" parent="8aKIkqGvbFKeEApUEz_4-7" source="v_qZ0RTvMOnoxzIiRFkD-31" target="v_qZ0RTvMOnoxzIiRFkD-46" edge="1">
          <mxGeometry relative="1" as="geometry" />
        </mxCell>
        <mxCell id="v_qZ0RTvMOnoxzIiRFkD-115" style="rounded=0;orthogonalLoop=1;jettySize=auto;html=1;exitX=1;exitY=0.5;exitDx=0;exitDy=0;entryX=0;entryY=0.5;entryDx=0;entryDy=0;endArrow=none;endFill=0;" parent="8aKIkqGvbFKeEApUEz_4-7" source="v_qZ0RTvMOnoxzIiRFkD-38" target="v_qZ0RTvMOnoxzIiRFkD-39" edge="1">
          <mxGeometry relative="1" as="geometry" />
        </mxCell>
        <mxCell id="v_qZ0RTvMOnoxzIiRFkD-116" style="rounded=0;orthogonalLoop=1;jettySize=auto;html=1;exitX=0;exitY=0.5;exitDx=0;exitDy=0;entryX=1;entryY=0.5;entryDx=0;entryDy=0;endArrow=none;endFill=0;" parent="8aKIkqGvbFKeEApUEz_4-7" source="v_qZ0RTvMOnoxzIiRFkD-46" target="v_qZ0RTvMOnoxzIiRFkD-38" edge="1">
          <mxGeometry relative="1" as="geometry" />
        </mxCell>
        <mxCell id="v_qZ0RTvMOnoxzIiRFkD-117" value="" style="endArrow=none;dashed=1;html=1;dashPattern=1 3;strokeWidth=2;rounded=0;" parent="8aKIkqGvbFKeEApUEz_4-7" edge="1">
          <mxGeometry width="50" height="50" relative="1" as="geometry">
            <mxPoint x="294" y="253.75" as="sourcePoint" />
            <mxPoint x="294" y="131.75" as="targetPoint" />
          </mxGeometry>
        </mxCell>
        <mxCell id="v_qZ0RTvMOnoxzIiRFkD-122" value="" style="endArrow=none;dashed=1;html=1;dashPattern=1 3;strokeWidth=2;rounded=0;" parent="8aKIkqGvbFKeEApUEz_4-7" edge="1">
          <mxGeometry width="50" height="50" relative="1" as="geometry">
            <mxPoint x="371" y="252.75" as="sourcePoint" />
            <mxPoint x="371" y="130.75" as="targetPoint" />
          </mxGeometry>
        </mxCell>
        <mxCell id="8aKIkqGvbFKeEApUEz_4-3" value="" style="endArrow=none;dashed=1;html=1;dashPattern=1 3;strokeWidth=2;rounded=0;" edge="1" parent="8aKIkqGvbFKeEApUEz_4-7">
          <mxGeometry width="50" height="50" relative="1" as="geometry">
            <mxPoint x="24" y="185.51" as="sourcePoint" />
            <mxPoint x="44" y="185.51" as="targetPoint" />
          </mxGeometry>
        </mxCell>
        <mxCell id="8aKIkqGvbFKeEApUEz_4-4" value="" style="endArrow=none;dashed=1;html=1;dashPattern=1 3;strokeWidth=2;rounded=0;" edge="1" parent="8aKIkqGvbFKeEApUEz_4-7">
          <mxGeometry width="50" height="50" relative="1" as="geometry">
            <mxPoint x="87" y="185.01" as="sourcePoint" />
            <mxPoint x="107" y="185.01" as="targetPoint" />
          </mxGeometry>
        </mxCell>
      </root>
    </mxGraphModel>
  </diagram>
</mxfile>
